Coordinates
version=1
nRows=7
nColumns=40
inDegrees=yes

Units are S.I. units (second, meters, Newtons, ...)
Angles are in degrees.

endheader
time	pelvis_tilt	pelvis_list	pelvis_rotation	pelvis_tx	pelvis_ty	pelvis_tz	hip_flexion_r	hip_adduction_r	hip_rotation_r	knee_angle_r	knee_angle_r_beta	ankle_angle_r	subtalar_angle_r	mtp_angle_r	hip_flexion_l	hip_adduction_l	hip_rotation_l	knee_angle_l	knee_angle_l_beta	ankle_angle_l	subtalar_angle_l	mtp_angle_l	lumbar_extension	lumbar_bending	lumbar_rotation	arm_flex_r	arm_add_r	arm_rot_r	elbow_flex_r	pro_sup_r	wrist_flex_r	wrist_dev_r	arm_flex_l	arm_add_l	arm_rot_l	elbow_flex_l	pro_sup_l	wrist_flex_l	wrist_dev_l
     56.31000000	     -4.93695397	     -4.16240886	     -1.77786963	      1.09675355	      0.93350561	      0.45401737	     30.40051146	     -7.41795130	     -5.58296610	     72.55507375	     72.55507375	     -0.89440294	    -15.09756064	     -1.39736052	     15.63607095	     -4.07365072	    -10.16312124	     20.75898118	     20.75898118	     13.29959237	     -6.43770923	     -0.47606771	     -9.06929671	      6.49229741	      1.50187316	      7.78794727	    -12.64503118	     -8.58105181	     71.70892650	     44.54704021	      0.00000000	      0.00000000	      9.03966733	    -12.42153740	      3.33776315	     41.12827652	     44.82681534	      0.00000000	      0.00000000
     56.32128571	     -4.88624835	     -4.17217917	     -2.04914006	      1.09501714	      0.93414464	      0.45358651	     31.86180723	     -7.46037646	     -5.72169690	     71.79509178	     71.79509178	     -0.76079066	    -14.54036877	     -1.59276465	     14.51564905	     -4.01034788	    -10.55551837	     19.89304911	     19.89304911	     13.59845059	     -6.01338952	     -0.66181579	     -9.32036799	      6.55723224	      2.12850110	      5.55389716	    -13.01971653	     -8.47099409	     68.31582979	     44.66063142	      0.00000000	      0.00000000	     11.28266025	    -12.70538237	      3.11694467	     42.40626632	     44.90324701	      0.00000000	      0.00000000
     56.33257143	     -4.84074879	     -4.24739357	     -2.27499428	      1.09329036	      0.93465433	      0.45324604	     33.17666317	     -7.36000539	     -5.88539332	     70.79507728	     70.79507728	     -0.78590505	    -14.15047343	     -1.81271815	     13.45408997	     -4.02114000	    -10.91864163	     19.07202510	     19.07202510	     13.52557335	     -5.68562174	     -1.81372868	     -9.43555844	      6.63851027	      1.59673259	      5.60929925	    -12.36449826	     -8.65972996	     60.69539394	     44.97268911	      0.00000000	      0.00000000	     12.65457635	    -13.65001725	      3.12177303	     44.15055918	     45.02883891	      0.00000000	      0.00000000
     56.34385714	     -4.78969348	     -4.28692852	     -2.53078460	      1.09168049	      0.93507336	      0.45293012	     34.35163914	     -7.26462116	     -6.01934989	     69.54951261	     69.54951261	     -0.67371681	    -13.59006389	     -1.62225939	     12.33950872	     -3.97755442	    -11.30424763	     18.17043088	     18.17043088	     13.54232108	     -5.31119740	     -2.69425275	     -9.62898850	      6.70564922	      1.54788184	      4.99222751	    -12.21825779	     -8.53039542	     54.67866997	     45.20454346	      0.00000000	      0.00000000	     14.17411536	    -14.33091320	      2.82171625	     46.11096132	     45.17404739	      0.00000000	      0.00000000
     56.35514286	     -4.70942359	     -4.28659945	     -2.78383283	      1.09028347	      0.93542113	      0.45255597	     35.31045133	     -7.20982814	     -6.16826518	     67.94623864	     67.94623864	     -0.61479817	    -12.94093139	     -1.46469689	     11.15523393	     -3.84921099	    -11.63564311	     17.21430205	     17.21430205	     13.80415237	     -4.92027121	     -2.86803233	     -9.91328177	      6.78700652	      2.15932760	      2.99243360	    -12.53317690	     -8.36664743	     51.79931924	     45.29621731	      0.00000000	      0.00000000	     16.14829050	    -14.53480472	      2.46397089	     47.73581861	     45.25956354	      0.00000000	      0.00000000
     56.36642857	     -4.65798789	     -4.24215698	     -3.03764802	      1.08894629	      0.93555777	      0.45227646	     36.18913219	     -7.13377234	     -6.23938057	     66.05088176	     66.05088176	     -0.47949602	    -12.20297426	     -0.90317937	      9.99599126	     -3.66842309	    -11.98988470	     16.19304303	     16.19304303	     13.56371085	     -4.65020031	     -4.20992286	    -10.04716715	      6.76103816	      1.53960681	      3.72217834	    -11.93427899	     -8.77698718	     43.51441053	     45.63776926	      0.00000000	      0.00000000	     17.06417213	    -15.56665874	      2.03855584	     50.06978009	     45.40618021	      0.00000000	      0.00000000
     56.37771429	     -4.55545954	     -4.09723683	     -3.30544638	      1.08778853	      0.93559602	      0.45200019	     36.80057384	     -7.12858587	     -6.27448787	     63.68562101	     63.68562101	     -0.36748491	    -11.43747388	     -0.67439266	      8.75382487	     -3.34713059	    -12.31817837	     15.15642276	     15.15642276	     13.70086984	     -4.33106854	     -4.54313104	    -10.32209756	      6.67443421	      1.97461728	      2.05210656	    -12.09031475	     -8.82976704	     40.56560344	     45.74642354	      0.00000000	      0.00000000	     18.67850002	    -15.84067420	      1.40823326	     52.12610817	     45.52867819	      0.00000000	      0.00000000
